{
    "accessors" : [
        {
            "bufferView" : 0,
            "componentType" : 5121,
            "count" : 132,
            "max" : [
                95
            ],
            "min" : [
                0
            ],
            "type" : "SCALAR"
        },
        {
            "bufferView" : 1,
            "componentType" : 5126,
            "count" : 96,
            "max" : [
                1.0000004768371582,
                1.0,
                1.0000005960464478
            ],
            "min" : [
                -1.0000003576278687,
                -1.0,
                -1.0000003576278687
            ],
            "type" : "VEC3"
        },
        {
            "bufferView" : 2,
            "componentType" : 5126,
            "count" : 96,
            "max" : [
                0.9999999403953552,
                1.0,
                0.9999999403953552
            ],
            "min" : [
                -1.0,
                -0.9999999403953552,
                -0.9999999403953552
            ],
            "type" : "VEC3"
        },
        {
            "bufferView" : 3,
            "componentType" : 5123,
            "count" : 2904,
            "max" : [
                1965
            ],
            "min" : [
                0
            ],
            "type" : "SCALAR"
        },
        {
            "bufferView" : 4,
            "componentType" : 5126,
            "count" : 1966,
            "max" : [
                1.3671875,
                0.984375,
                0.8515625
            ],
            "min" : [
                -1.3671875,
                -0.984375,
                -0.8515625
            ],
            "type" : "VEC3"
        },
        {
            "bufferView" : 5,
            "componentType" : 5126,
            "count" : 1966,
            "max" : [
                1.0,
                0.9970182180404663,
                1.0
            ],
            "min" : [
                -1.0,
                -0.992402970790863,
                -0.9864740371704102
            ],
            "type" : "VEC3"
        }
    ],
    "asset" : {
        "generator" : "Khronos Blender glTF 2.0 exporter",
        "version" : "2.0"
    },
    "bufferViews" : [
        {
            "buffer" : 0,
            "byteLength" : 132,
            "byteOffset" : 0,
            "target" : 34963
        },
        {
            "buffer" : 0,
            "byteLength" : 1152,
            "byteOffset" : 132,
            "target" : 34962
        },
        {
            "buffer" : 0,
            "byteLength" : 1152,
            "byteOffset" : 1284,
            "target" : 34962
        },
        {
            "buffer" : 0,
            "byteLength" : 5808,
            "byteOffset" : 2436,
            "target" : 34963
        },
        {
            "buffer" : 0,
            "byteLength" : 23592,
            "byteOffset" : 8244,
            "target" : 34962
        },
        {
            "buffer" : 0,
            "byteLength" : 23592,
            "byteOffset" : 31836,
            "target" : 34962
        }
    ],
    "buffers" : [
        {
            "byteLength" : 55428,
            "uri" : "data:application/octet-stream;base64,"
        }
    ],
    "cameras" : [
        {
            "name" : "Camera",
            "perspective" : {
                "aspectRatio" : 1.7777777777777777,
                "yfov" : 0.5033799372418416,
                "zfar" : 100.0,
                "znear" : 0.10000000149011612
            },
            "type" : "perspective"
        },
        {
            "name" : "Camera.001",
            "perspective" : {
                "aspectRatio" : 1.7777777777777777,
                "yfov" : 0.5033799372418416,
                "zfar" : 100.0,
                "znear" : 0.10000000149011612
            },
            "type" : "perspective"
        }
    ],
    "extensions" : {
        "KHR_lights" : {
            "lights" : [
                {
                    "color" : [
                        1.0,
                        1.0,
                        1.0
                    ],
                    "intensity" : 5.0,
                    "name" : "Lamp",
                    "type" : "point"
                },
                {
                    "color" : [
                        0.29569146037101746,
                        0.29569146037101746,
                        0.29569146037101746
                    ],
                    "name" : "Ambient_Scene",
                    "type" : "ambient"
                }
            ]
        }
    },
    "extensionsRequired" : [
        "KHR_lights"
    ],
    "extensionsUsed" : [
        "KHR_lights"
    ],
    "materials" : [
        {
            "name" : "Brown",
            "pbrMetallicRoughness" : {
                "baseColorFactor" : [
                    0.293789605703795,
                    0.17417738697197116,
                    0.04314462606824376,
                    1.0
                ],
                "metallicFactor" : 0.0
            }
        },
        {
            "name" : "Pink",
            "pbrMetallicRoughness" : {
                "baseColorFactor" : [
                    0.33650966192051257,
                    0.06638979414686252,
                    0.3660241896811751,
                    1.0
                ],
                "metallicFactor" : 0.0
            }
        }
    ],
    "meshes" : [
        {
            "name" : "Cube",
            "primitives" : [
                {
                    "attributes" : {
                        "NORMAL" : 2,
                        "POSITION" : 1
                    },
                    "indices" : 0,
                    "material" : 1
                }
            ]
        },
        {
            "name" : "Suzanne",
            "primitives" : [
                {
                    "attributes" : {
                        "NORMAL" : 5,
                        "POSITION" : 4
                    },
                    "indices" : 3,
                    "material" : 0
                }
            ]
        }
    ],
    "nodes" : [
        {
            "extras" : {
                "interactive" : 1.0
            },
            "mesh" : 0,
            "name" : "cube",
            "translation" : [
                0.0,
                1.0,
                3.0
            ]
        },
        {
            "camera" : 0,
            "name" : "Correction_cube_view_cam",
            "rotation" : [
                -0.7071067690849304,
                -0.0,
                0.0,
                0.7071067690849304
            ]
        },
        {
            "children" : [
                1
            ],
            "name" : "cube_view_cam",
            "rotation" : [
                0.3903864324092865,
                0.5776845216751099,
                -0.3658134639263153,
                0.6164897084236145
            ],
            "scale" : [
                1.0,
                0.9999999403953552,
                1.0
            ],
            "translation" : [
                7.8521342277526855,
                5.301830291748047,
                3.2472496032714844
            ]
        },
        {
            "name" : "cube_view_lookat",
            "translation" : [
                -0.25852370262145996,
                1.4576338529586792,
                2.7195746898651123
            ]
        },
        {
            "extensions" : {
                "KHR_lights" : {
                    "light" : 0
                }
            },
            "name" : "Correction_Lamp",
            "rotation" : [
                -0.7071067690849304,
                -0.0,
                0.0,
                0.7071067690849304
            ]
        },
        {
            "children" : [
                4
            ],
            "name" : "Lamp",
            "rotation" : [
                0.16907575726509094,
                0.7558802962303162,
                -0.27217137813568115,
                0.570947527885437
            ],
            "scale" : [
                1.0,
                1.0,
                0.9999999403953552
            ],
            "translation" : [
                4.076245307922363,
                5.903861999511719,
                0.9945460557937622
            ]
        },
        {
            "extras" : {
                "interactive" : 1.0
            },
            "mesh" : 1,
            "name" : "suzanne",
            "rotation" : [
                0.0,
                0.7071067094802856,
                -0.0,
                0.7071068286895752
            ],
            "translation" : [
                0.0,
                1.0,
                -1.0
            ]
        },
        {
            "camera" : 1,
            "name" : "Correction_suzanne_view_cam",
            "rotation" : [
                -0.7071067690849304,
                -0.0,
                0.0,
                0.7071067690849304
            ]
        },
        {
            "children" : [
                7
            ],
            "name" : "suzanne_view_cam",
            "rotation" : [
                0.3680172264575958,
                0.6316183805465698,
                -0.4958131015300751,
                0.46881869435310364
            ],
            "scale" : [
                0.6000001430511475,
                0.6000000238418579,
                0.6000000834465027
            ],
            "translation" : [
                8.611139297485352,
                3.150722026824951,
                -3.622267484664917
            ]
        },
        {
            "name" : "suzanne_view_lookat",
            "translation" : [
                -0.32902759313583374,
                0.8674209117889404,
                -0.9178445339202881
            ]
        }
    ],
    "scene" : 0,
    "scenes" : [
        {
            "extensions" : {
                "KHR_lights" : {
                    "light" : 1
                }
            },
            "name" : "Scene",
            "nodes" : [
                9,
                8,
                6,
                3,
                2,
                0,
                5
            ]
        }
    ]
}
